<?xml version="1.0" encoding="utf-8"?>
<!-- Generator: Adobe Illustrator 23.0.1, SVG Export Plug-In . SVG Version: 6.00 Build 0)  -->
<svg version="1.1" id="Слой_1" xmlns="http://www.w3.org/2000/svg" xmlns:xlink="http://www.w3.org/1999/xlink" x="0px" y="0px"
	 viewBox="0 0 80 80" style="enable-background:new 0 0 80 80;" xml:space="preserve">
<path style="fill:#B7A18C;" d="M62.5,20.3c-0.1-0.8-1.1-1.3-2.5-2c-1.8-1-4.4-2.4-6.4-5c-1.3-1.3-2.3-2.4-3.1-3.4
	C47.7,6.6,46.3,5,39.8,5c-6.5,0-8,1.7-10.6,4.9c-0.9,1-1.8,2.1-3.1,3.5c-2.1,2.6-4.6,4-6.4,5c-1.4,0.8-2.4,1.3-2.5,2
	c-0.1,0.3,0,0.7,0.3,1l0,0l0.3,0.1c1.9,0.6,3.2,1.1,4,4.2l0.1,0.3c0.6,2.4,1.6,6.5,6.8,9.1L23.5,55h2.1l5.8-18.8
	c0.8,0.2,1.6,0.4,2.6,0.6l-2.3,9.1h2.1l2.7-8.8c0.6,0.1,1.3,0.1,2,0.1l0,0c0.2,0,0.6,0,1.2,0c0.6,0,1,0,1.2,0l0,0
	c0.7,0,1.4-0.1,2-0.1l2.7,8.8h2.1l-2.3-9.1c0.9-0.1,1.8-0.4,2.6-0.6L53.8,55h2.1l-4.9-19.9c5.2-2.5,6.2-6.7,6.8-9.1l0.1-0.3
	c0.8-3.1,2.1-3.6,4-4.2l0.3-0.1l0.1-0.1C62.5,20.9,62.6,20.6,62.5,20.3z M25.2,54.2h-0.7l4.7-18.9c0.5,0.2,1,0.4,1.6,0.6L25.2,54.2z
	 M33.4,45.1h-0.7l2.1-8.3c0.4,0,0.8,0.1,1.1,0.1L33.4,45.1z M46.9,45.1h-0.7L43.7,37c0.4,0,0.8-0.1,1.1-0.1L46.9,45.1z M55.1,54.2
	h-0.7L48.8,36c0.6-0.2,1.1-0.4,1.6-0.6L55.1,54.2z M40.9,36.5L40.9,36.5c-0.3,0-2,0-2.3,0h0c-8.9-0.3-12.7-3.3-14.5-6.3
	c3.9,2.9,9.7,4.7,15.7,4.7c6.1,0,11.5-1.6,15.7-4.7C53.8,33.2,49.9,36.2,40.9,36.5z M61.7,20.8L61.7,20.8c-2,0.7-3.7,1.3-4.5,4.8
	l-0.1,0.3c-0.2,0.8-0.4,1.8-0.9,2.9c-4.3,3.6-10,5.5-16.5,5.5c-6.5,0-12.6-2-16.4-5.4l0,0c-0.5-1.1-0.7-2.1-0.9-2.9l-0.1-0.3
	c-0.9-3.5-2.5-4.1-4.4-4.7l-0.1,0c-0.1-0.2-0.1-0.3-0.1-0.4c0.1-0.4,1-0.9,2.1-1.5c1.9-1,4.5-2.4,6.6-5.1c1.3-1.3,2.3-2.5,3.1-3.5
	c2.7-3.2,3.9-4.7,10.1-4.7c6.2,0,7.4,1.5,10.2,4.7c0.9,1,1.8,2.1,3.1,3.4c2.1,2.7,4.7,4.1,6.6,5.2c1.1,0.6,2.1,1.1,2.1,1.5
	C61.8,20.4,61.8,20.6,61.7,20.8z"/>
</svg>
