<?xml version="1.0" encoding="utf-8"?>
<!-- Generator: Adobe Illustrator 23.0.1, SVG Export Plug-In . SVG Version: 6.00 Build 0)  -->
<svg version="1.1" id="Слой_1" xmlns="http://www.w3.org/2000/svg" xmlns:xlink="http://www.w3.org/1999/xlink" x="0px" y="0px"
	 viewBox="0 0 80 80" style="enable-background:new 0 0 80 80;" xml:space="preserve">
<g>
	<g>
		<path style="fill:#B7A18C;" d="M56.2,28.5c-0.7-0.5-1.7-0.4-2.2,0.2c-0.6,0.8-1.5,1.2-2.4,1.4l-0.6-5.8c2.8-0.1,5-2.4,5-5.3v-8.7
			C56,7.4,53.6,5,50.7,5H29.3C26.3,5,24,7.4,24,10.3V19c0,2.8,2.3,5.2,5,5.3L28.4,30c-0.9-0.1-1.8-0.6-2.4-1.4
			c-0.5-0.7-1.6-0.8-2.2-0.2c-0.3,0.3-0.5,0.7-0.6,1.1c0,0.4,0.1,0.8,0.3,1.2c1.1,1.4,2.7,2.3,4.5,2.5L25.8,55h2l3-21.7H31v2.2h0.2
			L30,46.4h2l1.5-10.9h12.9l1.5,10.9h2l-1.2-10.9H49v-2.2h0.2l3,21.7h2l-2.3-21.8c1.7-0.2,3.4-1.1,4.5-2.5c0.3-0.3,0.4-0.7,0.3-1.2
			C56.7,29.1,56.5,28.7,56.2,28.5z M24.6,19v-8.7c0-2.6,2.1-4.6,4.6-4.6h21.5c2.5,0,4.6,2.1,4.6,4.6V19c0,2.6-2.1,4.6-4.6,4.6H29.3
			C26.7,23.6,24.6,21.5,24.6,19z M32,24.3h16l0.8,5.8H31.2L32,24.3z M30.5,30.1h-1.5l0.6-5.8h1.6L30.5,30.1z M48.6,24.3h1.6l0.6,5.8
			h-1.5L48.6,24.3z M27.2,54.3h-0.7l2.2-21.1c0.1,0,0.2,0,0.3,0h1.1L27.2,54.3z M31.5,45.7h-0.7l1.1-10.2h1L31.5,45.7z M31.7,34.8
			v-1.5h16.6v1.5H31.7z M49.2,45.7h-0.7l-1.4-10.2h1L49.2,45.7z M53.4,54.3h-0.7l-2.9-21.1H51c0.1,0,0.2,0,0.2,0L53.4,54.3z
			 M55.9,30.3c-1.2,1.5-3,2.3-4.9,2.3H29c-1.9,0-3.7-0.9-4.9-2.4c-0.1-0.2-0.2-0.4-0.2-0.7c0-0.2,0.1-0.4,0.3-0.6
			c0.2-0.1,0.4-0.2,0.6-0.2c0.3,0,0.5,0.1,0.7,0.3c0.9,1.1,2.2,1.7,3.5,1.7h22c1.4,0,2.6-0.6,3.5-1.6c0.3-0.4,0.9-0.4,1.3-0.1
			c0.2,0.2,0.3,0.4,0.3,0.6C56.1,29.8,56,30.1,55.9,30.3z M27.9,8c-0.6,0-1.1,0.5-1.1,1.1c0,0.6,0.5,1.1,1.1,1.1
			c0.6,0,1.1-0.5,1.1-1.1C29,8.5,28.5,8,27.9,8z M27.9,9.6c-0.2,0-0.4-0.2-0.4-0.4c0-0.2,0.2-0.4,0.4-0.4c0.2,0,0.4,0.2,0.4,0.4
			C28.3,9.3,28.1,9.6,27.9,9.6z M27.9,19.4c-0.6,0-1.1,0.5-1.1,1.1s0.5,1.1,1.1,1.1c0.6,0,1.1-0.5,1.1-1.1S28.5,19.4,27.9,19.4z
			 M27.9,21c-0.2,0-0.4-0.2-0.4-0.4s0.2-0.4,0.4-0.4c0.2,0,0.4,0.2,0.4,0.4S28.1,21,27.9,21z M51.8,10.2c0.6,0,1.1-0.5,1.1-1.1
			c0-0.6-0.5-1.1-1.1-1.1s-1.1,0.5-1.1,1.1C50.7,9.7,51.2,10.2,51.8,10.2z M51.8,8.6c0.2,0,0.4,0.2,0.4,0.4c0,0.2-0.2,0.4-0.4,0.4
			c-0.2,0-0.4-0.2-0.4-0.4C51.3,8.8,51.6,8.6,51.8,8.6z M51.8,21.6c0.6,0,1.1-0.5,1.1-1.1s-0.5-1.1-1.1-1.1s-1.1,0.5-1.1,1.1
			S51.2,21.6,51.8,21.6z M51.8,20c0.2,0,0.4,0.2,0.4,0.4s-0.2,0.4-0.4,0.4c-0.2,0-0.4-0.2-0.4-0.4S51.6,20,51.8,20z"/>
	</g>
</g>
</svg>
