<?xml version="1.0" encoding="utf-8"?>
<!-- Generator: Adobe Illustrator 23.0.1, SVG Export Plug-In . SVG Version: 6.00 Build 0)  -->
<svg version="1.1" id="Слой_1" xmlns="http://www.w3.org/2000/svg" xmlns:xlink="http://www.w3.org/1999/xlink" x="0px" y="0px"
	 viewBox="0 0 80 80" style="enable-background:new 0 0 80 80;" xml:space="preserve">
<path style="fill:#B7A18C;" d="M54.2,55.6h2.1L51.2,35c1.8-0.6,3-1.4,3.7-2.3c0.4-0.7,0.6-1.4,0.3-2.1c-0.7-1.6-6-18.1-6-18.3
	c-0.1-0.3-0.1-0.5-0.2-0.7c-0.7-2.5-1.4-5.1-5.4-5.8c-0.6-0.1-2.7-0.1-4.3-0.1c-1.1,0-2.4,0-2.9,0.1c-4.4,0.5-5.1,3.2-5.9,5.9
	c-0.1,0.3-0.1,0.5-0.2,0.7c0,0.2-5.4,16.7-6,18.4c-0.3,0.7-0.2,1.4,0.3,2.1c0.6,0.9,1.9,1.7,3.7,2.3l-5.1,20.6h2.1l6.1-19.8
	c0.8,0.1,1.7,0.3,2.7,0.4l-2.5,10.1h2.1l3-9.9c0.5,0,1,0,1.5,0c0.5,0,1,0,1.5,0c0.5,0,1,0,1.5,0l0,0c0.5,0,1,0,1.5,0l3,9.9h2.1
	l-2.5-10.1c1-0.1,1.8-0.2,2.7-0.4L54.2,55.6z M55.4,54.8h-0.7l-5.9-19.2c0.6-0.1,1.2-0.3,1.7-0.4L55.4,54.8z M31,12.5
	c0.1-0.3,0.1-0.5,0.2-0.8c0.7-2.6,1.3-4.9,5.2-5.3c0.3,0,1.4-0.1,2.8-0.1c2,0,3.7,0,4.2,0.1c3.5,0.6,4.1,2.8,4.8,5.3
	c0.1,0.3,0.1,0.5,0.2,0.8c0.2,0.6,4.3,13.5,5.7,17.4c-3.3-0.6-8.6-0.8-14.4-0.8s-11.1,0.3-14.4,0.8C26.7,26,30.8,13.1,31,12.5z
	 M24.8,54.8h-0.7l4.9-19.6c0.6,0.1,1.1,0.3,1.7,0.4L24.8,54.8z M33.2,45.5h-0.7l2.3-9.3c0.4,0,0.8,0.1,1.2,0.1L33.2,45.5z
	 M41.3,35.6c-0.5,0-1,0-1.5,0c-0.5,0-1,0-1.5,0c-7.5,0-11.9-1.7-13-3.3c-0.3-0.5-0.4-0.9-0.2-1.4c0-0.1,0-0.1,0.1-0.2
	c3.3-0.6,8.7-0.9,14.7-0.9c5.9,0,11.4,0.3,14.7,0.9c0,0.1,0.1,0.2,0.1,0.2c0.2,0.5,0.1,1-0.2,1.4C53.2,33.9,48.7,35.6,41.3,35.6z
	 M47.1,45.5h-0.7l-2.9-9.3c0.4,0,0.8,0,1.2-0.1L47.1,45.5z"/>
</svg>
